# xmcd
# 
# Track frame offsets:
#     150
#     17633
#     34166
#     50019
#     72775
#     92568
#     109976
#     129366
#     147256
#     164749
# 
# Disc length: 2462
# 
# Revision: 0
# Processed by: cddbd v1.5.2PL0 Copyright (c) Steve Scherf et al.
# Submitted via: fre:ac v1.0.31
# 
DISCID=8a099c0a
DTITLE=中原めいこ - ココナッツ・ハウス
DYEAR=1982
DGENRE=Pop
TTITLE0=今夜だけ Dance・Dance・Dance
TTITLE1=Sunset Freeway
TTITLE2=バカンス
TTITLE3=涙のスロー・ダンス
TTITLE4=恋はサンバにのせて・・・
TTITLE5=タイムリミット
TTITLE6=GEMINI
TTITLE7=ほんのちょっぴり Old man
TTITLE8=City Night
TTITLE9=Come back to me
EXTD=
EXTT0=
EXTT1=
EXTT2=
EXTT3=
EXTT4=
EXTT5=
EXTT6=
EXTT7=
EXTT8=
EXTT9=
PLAYORDER=
